<?xml version="1.0" standalone="no"?>
<!DOCTYPE svg PUBLIC "-//W3C//DTD SVG 20010904//EN"
 "http://www.w3.org/TR/2001/REC-SVG-20010904/DTD/svg10.dtd">
<svg version="1.0" xmlns="http://www.w3.org/2000/svg"
 width="640.000000pt" height="640.000000pt" viewBox="0 0 640.000000 640.000000"
 preserveAspectRatio="xMidYMid meet">
<metadata>
Created by potrace 1.14, written by Peter Selinger 2001-2017
</metadata>
<g transform="translate(0.000000,640.000000) scale(0.100000,-0.100000)"
fill="#000000" stroke="none">
<path d="M2999 6396 c-2 -2 -43 -7 -91 -10 -48 -3 -93 -8 -100 -10 -7 -3 -35
-7 -63 -10 -49 -6 -187 -30 -232 -41 -13 -3 -31 -7 -40 -9 -639 -146 -1258
-519 -1682 -1011 -335 -389 -554 -801 -682 -1283 -35 -131 -34 -126 -59 -262
-38 -213 -45 -307 -44 -575 0 -193 5 -292 19 -385 2 -14 7 -47 11 -75 11 -82
35 -202 65 -320 65 -260 229 -658 335 -815 13 -19 24 -38 24 -42 0 -22 219
-325 318 -441 71 -83 266 -274 356 -350 265 -221 500 -364 846 -515 222 -96
568 -188 823 -218 29 -3 70 -8 92 -11 76 -9 500 -10 575 -2 41 5 100 11 130
14 30 3 62 7 70 10 8 2 33 6 55 10 61 8 194 35 250 51 28 7 61 16 75 19 51 13
305 98 315 105 6 4 21 11 35 15 74 23 325 148 458 229 75 46 112 70 236 156
121 83 426 366 540 501 63 73 218 284 259 350 23 39 54 89 68 112 123 203 249
499 323 765 29 103 73 314 81 392 4 30 8 61 11 68 25 79 25 631 0 782 -3 14
-7 45 -10 70 -31 235 -108 516 -213 768 -56 137 -147 320 -189 382 -13 19 -24
38 -24 42 0 23 -226 335 -324 448 -60 68 -272 277 -342 337 -415 352 -929 600
-1454 702 -51 10 -69 13 -147 25 -16 3 -53 8 -83 11 -30 4 -66 9 -80 11 -31 6
-506 14 -511 10z"/>
</g>
</svg>
